<svg version="1.1" xmlns="http://www.w3.org/2000/svg" xmlns:xlink="http://www.w3.org/1999/xlink" x="0px" y="0px"
     width="64px" height="64px" viewBox="0 0 64 64" enable-background="new 0 0 64 64" xml:space="preserve">
<path style="fill:#eeeeee;" d="M32,0C14.327,0,0,14.327,0,32s14.327,32,32,32s32-14.327,32-32S49.673,0,32,0z M32,58
    C17.664,58,6,46.336,6,32S17.664,6,32,6s26,11.664,26,26S46.336,58,32,58z"/>
<circle style="fill:#eeeeee;" cx="32" cy="47" r="5.5"/>
<path style="fill:#eeeeee;" d="M32,14c-7.36,0-11.5,4.65-11.5,9.5c0,1.806,1.463,3.268,3.268,3.268s3.268-1.462,3.268-3.268
    c0-2.08,1.75-3.5,4.964-3.5c3.5,0,5.5,2.15,5.5,4.5c0,2.55-1.5,3.9-4.25,6.1c-2.58,2.06-4.75,4.75-4.75,8.4
    c0,1.806,1.463,3.268,3.268,3.268s3.268-1.462,3.268-3.268c0-1.65,0.8-2.75,2.65-4.2c3.15-2.5,6.35-5.25,6.35-9.8
    C44,18.75,39.3,14,32,14z"/>
</svg>
        